<mxfile host="app.diagrams.net" modified="2023-03-27T16:55:11.701Z" agent="Mozilla/5.0 (Windows NT 10.0; Win64; x64) AppleWebKit/537.36 (KHTML, like Gecko) Chrome/111.0.0.0 Safari/537.36" etag="1BWpg6M2sb-5F6FyeJtj" version="21.1.0" type="device">
  <diagram name="Página-1" id="syx6TanqXz7abNU1U-BA">
    <mxGraphModel dx="1120" dy="452" grid="1" gridSize="10" guides="1" tooltips="1" connect="1" arrows="1" fold="1" page="1" pageScale="1" pageWidth="827" pageHeight="1169" math="0" shadow="0">
      <root>
        <mxCell id="0" />
        <mxCell id="1" parent="0" />
        <mxCell id="jLMDX9WhjYqnc2QiXSGX-3" value="" style="rhombus;whiteSpace=wrap;html=1;" parent="1" vertex="1">
          <mxGeometry x="605" y="225" width="90" height="90" as="geometry" />
        </mxCell>
        <mxCell id="nP9h4O7x623DdZkwCpyF-2" value="Equipo de Futbol" style="rounded=0;whiteSpace=wrap;html=1;" parent="1" vertex="1">
          <mxGeometry x="340" y="250" width="120" height="60" as="geometry" />
        </mxCell>
        <mxCell id="nP9h4O7x623DdZkwCpyF-3" value="Jugador" style="rounded=0;whiteSpace=wrap;html=1;" parent="1" vertex="1">
          <mxGeometry x="120" y="120" width="120" height="60" as="geometry" />
        </mxCell>
        <mxCell id="nP9h4O7x623DdZkwCpyF-4" value="Torneo" style="rounded=0;whiteSpace=wrap;html=1;" parent="1" vertex="1">
          <mxGeometry x="590" y="120" width="120" height="60" as="geometry" />
        </mxCell>
        <mxCell id="nP9h4O7x623DdZkwCpyF-6" value="participa en" style="rhombus;whiteSpace=wrap;html=1;" parent="1" vertex="1">
          <mxGeometry x="360" y="110" width="80" height="80" as="geometry" />
        </mxCell>
        <mxCell id="nP9h4O7x623DdZkwCpyF-14" value="" style="endArrow=none;html=1;rounded=0;entryX=0;entryY=0.5;entryDx=0;entryDy=0;exitX=1;exitY=0.5;exitDx=0;exitDy=0;" parent="1" source="nP9h4O7x623DdZkwCpyF-3" target="nP9h4O7x623DdZkwCpyF-6" edge="1">
          <mxGeometry width="50" height="50" relative="1" as="geometry">
            <mxPoint x="240" y="210" as="sourcePoint" />
            <mxPoint x="360" y="210" as="targetPoint" />
          </mxGeometry>
        </mxCell>
        <mxCell id="nP9h4O7x623DdZkwCpyF-23" value="&lt;u&gt;NroInscripcion&lt;/u&gt;" style="ellipse;whiteSpace=wrap;html=1;" parent="1" vertex="1">
          <mxGeometry x="135" y="60" width="90" height="30" as="geometry" />
        </mxCell>
        <mxCell id="nP9h4O7x623DdZkwCpyF-24" value="Nombre y apellido" style="ellipse;whiteSpace=wrap;html=1;" parent="1" vertex="1">
          <mxGeometry x="210" y="200" width="90" height="30" as="geometry" />
        </mxCell>
        <mxCell id="nP9h4O7x623DdZkwCpyF-25" value="Fecha de nacimiento" style="ellipse;whiteSpace=wrap;html=1;" parent="1" vertex="1">
          <mxGeometry x="10" y="220" width="90" height="30" as="geometry" />
        </mxCell>
        <mxCell id="nP9h4O7x623DdZkwCpyF-26" value="Ciudad de origen" style="ellipse;whiteSpace=wrap;html=1;" parent="1" vertex="1">
          <mxGeometry y="90" width="90" height="50" as="geometry" />
        </mxCell>
        <mxCell id="nP9h4O7x623DdZkwCpyF-27" value="Posición" style="ellipse;whiteSpace=wrap;html=1;" parent="1" vertex="1">
          <mxGeometry x="355" y="45" width="90" height="30" as="geometry" />
        </mxCell>
        <mxCell id="nP9h4O7x623DdZkwCpyF-29" value="" style="endArrow=none;html=1;rounded=0;entryX=0.5;entryY=1;entryDx=0;entryDy=0;exitX=0.5;exitY=0;exitDx=0;exitDy=0;" parent="1" source="nP9h4O7x623DdZkwCpyF-3" target="nP9h4O7x623DdZkwCpyF-23" edge="1">
          <mxGeometry width="50" height="50" relative="1" as="geometry">
            <mxPoint x="390" y="260" as="sourcePoint" />
            <mxPoint x="440" y="210" as="targetPoint" />
          </mxGeometry>
        </mxCell>
        <mxCell id="nP9h4O7x623DdZkwCpyF-30" value="" style="endArrow=none;html=1;rounded=0;entryX=0.75;entryY=1;entryDx=0;entryDy=0;exitX=0.5;exitY=0;exitDx=0;exitDy=0;" parent="1" source="nP9h4O7x623DdZkwCpyF-24" target="nP9h4O7x623DdZkwCpyF-3" edge="1">
          <mxGeometry width="50" height="50" relative="1" as="geometry">
            <mxPoint x="190" y="130" as="sourcePoint" />
            <mxPoint x="190" y="100" as="targetPoint" />
          </mxGeometry>
        </mxCell>
        <mxCell id="nP9h4O7x623DdZkwCpyF-31" value="" style="endArrow=none;html=1;rounded=0;entryX=0;entryY=0.5;entryDx=0;entryDy=0;exitX=0.578;exitY=-0.033;exitDx=0;exitDy=0;exitPerimeter=0;" parent="1" source="nP9h4O7x623DdZkwCpyF-25" target="nP9h4O7x623DdZkwCpyF-3" edge="1">
          <mxGeometry width="50" height="50" relative="1" as="geometry">
            <mxPoint x="200" y="140" as="sourcePoint" />
            <mxPoint x="200" y="110" as="targetPoint" />
          </mxGeometry>
        </mxCell>
        <mxCell id="nP9h4O7x623DdZkwCpyF-32" value="" style="endArrow=none;html=1;rounded=0;entryX=1;entryY=0.5;entryDx=0;entryDy=0;exitX=0;exitY=0.5;exitDx=0;exitDy=0;" parent="1" source="nP9h4O7x623DdZkwCpyF-3" target="nP9h4O7x623DdZkwCpyF-26" edge="1">
          <mxGeometry width="50" height="50" relative="1" as="geometry">
            <mxPoint x="210" y="150" as="sourcePoint" />
            <mxPoint x="210" y="120" as="targetPoint" />
          </mxGeometry>
        </mxCell>
        <mxCell id="nP9h4O7x623DdZkwCpyF-33" value="" style="endArrow=none;html=1;rounded=0;entryX=0.5;entryY=1;entryDx=0;entryDy=0;exitX=0.5;exitY=0;exitDx=0;exitDy=0;" parent="1" source="nP9h4O7x623DdZkwCpyF-6" target="nP9h4O7x623DdZkwCpyF-27" edge="1">
          <mxGeometry width="50" height="50" relative="1" as="geometry">
            <mxPoint x="220" y="160" as="sourcePoint" />
            <mxPoint x="220" y="130" as="targetPoint" />
          </mxGeometry>
        </mxCell>
        <mxCell id="nP9h4O7x623DdZkwCpyF-36" value="&lt;u&gt;Nombre&lt;/u&gt;" style="ellipse;whiteSpace=wrap;html=1;" parent="1" vertex="1">
          <mxGeometry x="225" y="265" width="90" height="30" as="geometry" />
        </mxCell>
        <mxCell id="nP9h4O7x623DdZkwCpyF-37" value="Ciudad" style="ellipse;whiteSpace=wrap;html=1;" parent="1" vertex="1">
          <mxGeometry x="490" y="250" width="90" height="30" as="geometry" />
        </mxCell>
        <mxCell id="nP9h4O7x623DdZkwCpyF-38" value="Provincia" style="ellipse;whiteSpace=wrap;html=1;" parent="1" vertex="1">
          <mxGeometry x="485" y="305" width="90" height="30" as="geometry" />
        </mxCell>
        <mxCell id="nP9h4O7x623DdZkwCpyF-41" value="" style="endArrow=none;html=1;rounded=0;entryX=0;entryY=0.5;entryDx=0;entryDy=0;exitX=1;exitY=0.5;exitDx=0;exitDy=0;" parent="1" source="nP9h4O7x623DdZkwCpyF-2" target="nP9h4O7x623DdZkwCpyF-37" edge="1">
          <mxGeometry width="50" height="50" relative="1" as="geometry">
            <mxPoint x="410" y="260" as="sourcePoint" />
            <mxPoint x="410" y="230" as="targetPoint" />
          </mxGeometry>
        </mxCell>
        <mxCell id="nP9h4O7x623DdZkwCpyF-42" value="" style="endArrow=none;html=1;rounded=0;entryX=0;entryY=0.5;entryDx=0;entryDy=0;exitX=1;exitY=0.5;exitDx=0;exitDy=0;" parent="1" source="nP9h4O7x623DdZkwCpyF-2" target="nP9h4O7x623DdZkwCpyF-38" edge="1">
          <mxGeometry width="50" height="50" relative="1" as="geometry">
            <mxPoint x="470" y="290" as="sourcePoint" />
            <mxPoint x="500" y="275" as="targetPoint" />
          </mxGeometry>
        </mxCell>
        <mxCell id="nP9h4O7x623DdZkwCpyF-45" value="FechaInscipcion&lt;br&gt;" style="ellipse;whiteSpace=wrap;html=1;" parent="1" vertex="1">
          <mxGeometry x="450" y="200" width="95" height="40" as="geometry" />
        </mxCell>
        <mxCell id="nP9h4O7x623DdZkwCpyF-46" value="" style="endArrow=none;html=1;rounded=0;entryX=0.5;entryY=1;entryDx=0;entryDy=0;exitX=1;exitY=0.5;exitDx=0;exitDy=0;" parent="1" source="nP9h4O7x623DdZkwCpyF-2" target="nP9h4O7x623DdZkwCpyF-45" edge="1">
          <mxGeometry width="50" height="50" relative="1" as="geometry">
            <mxPoint x="400" y="310" as="sourcePoint" />
            <mxPoint x="440" y="305" as="targetPoint" />
          </mxGeometry>
        </mxCell>
        <mxCell id="jLMDX9WhjYqnc2QiXSGX-1" value="" style="shape=link;html=1;rounded=0;entryX=0.5;entryY=1;entryDx=0;entryDy=0;exitX=0.5;exitY=0;exitDx=0;exitDy=0;" parent="1" source="jLMDX9WhjYqnc2QiXSGX-2" target="nP9h4O7x623DdZkwCpyF-4" edge="1">
          <mxGeometry width="100" relative="1" as="geometry">
            <mxPoint x="600" y="225" as="sourcePoint" />
            <mxPoint x="650" y="214.9999999999999" as="targetPoint" />
          </mxGeometry>
        </mxCell>
        <mxCell id="jLMDX9WhjYqnc2QiXSGX-2" value="Tiene" style="rhombus;whiteSpace=wrap;html=1;" parent="1" vertex="1">
          <mxGeometry x="610" y="230" width="80" height="80" as="geometry" />
        </mxCell>
        <mxCell id="jLMDX9WhjYqnc2QiXSGX-28" style="edgeStyle=none;shape=connector;rounded=0;orthogonalLoop=1;jettySize=auto;html=1;exitX=0;exitY=0.5;exitDx=0;exitDy=0;labelBackgroundColor=default;strokeColor=default;fontFamily=Helvetica;fontSize=12;fontColor=default;endArrow=none;entryX=1;entryY=0.5;entryDx=0;entryDy=0;" parent="1" source="jLMDX9WhjYqnc2QiXSGX-7" target="jLMDX9WhjYqnc2QiXSGX-20" edge="1">
          <mxGeometry relative="1" as="geometry">
            <mxPoint x="870" y="310" as="targetPoint" />
          </mxGeometry>
        </mxCell>
        <mxCell id="jLMDX9WhjYqnc2QiXSGX-7" value="&lt;u&gt;NroFecha&lt;/u&gt;" style="ellipse;whiteSpace=wrap;html=1;strokeColor=default;fontFamily=Helvetica;fontSize=12;fontColor=default;fillColor=default;" parent="1" vertex="1">
          <mxGeometry x="720" y="380" width="90" height="40" as="geometry" />
        </mxCell>
        <mxCell id="jLMDX9WhjYqnc2QiXSGX-9" value="Día" style="ellipse;whiteSpace=wrap;html=1;strokeColor=default;fontFamily=Helvetica;fontSize=12;fontColor=default;fillColor=default;" parent="1" vertex="1">
          <mxGeometry x="380" y="540" width="90" height="40" as="geometry" />
        </mxCell>
        <mxCell id="jLMDX9WhjYqnc2QiXSGX-10" value="" style="endArrow=none;html=1;rounded=0;fontFamily=Helvetica;fontSize=12;fontColor=default;entryX=0.5;entryY=0;entryDx=0;entryDy=0;exitX=0.5;exitY=1;exitDx=0;exitDy=0;" parent="1" source="q1SjCqq7xsJDzZB61bRr-15" target="jLMDX9WhjYqnc2QiXSGX-9" edge="1">
          <mxGeometry width="50" height="50" relative="1" as="geometry">
            <mxPoint x="680" y="130" as="sourcePoint" />
            <mxPoint x="725" y="130" as="targetPoint" />
          </mxGeometry>
        </mxCell>
        <mxCell id="jLMDX9WhjYqnc2QiXSGX-12" value="" style="shape=link;html=1;rounded=0;fontFamily=Helvetica;fontSize=12;fontColor=default;exitX=0.5;exitY=1;exitDx=0;exitDy=0;entryX=0.5;entryY=0;entryDx=0;entryDy=0;" parent="1" source="jLMDX9WhjYqnc2QiXSGX-3" target="jLMDX9WhjYqnc2QiXSGX-21" edge="1">
          <mxGeometry width="100" relative="1" as="geometry">
            <mxPoint x="540" y="270" as="sourcePoint" />
            <mxPoint x="600" y="370" as="targetPoint" />
          </mxGeometry>
        </mxCell>
        <mxCell id="jLMDX9WhjYqnc2QiXSGX-25" value="" style="group" parent="1" vertex="1" connectable="0">
          <mxGeometry x="595" y="375" width="110" height="50" as="geometry" />
        </mxCell>
        <mxCell id="jLMDX9WhjYqnc2QiXSGX-21" value="" style="rounded=0;whiteSpace=wrap;html=1;strokeColor=default;fontFamily=Helvetica;fontSize=12;fontColor=default;fillColor=default;" parent="jLMDX9WhjYqnc2QiXSGX-25" vertex="1">
          <mxGeometry width="110" height="50" as="geometry" />
        </mxCell>
        <mxCell id="jLMDX9WhjYqnc2QiXSGX-20" value="Fecha" style="rounded=0;whiteSpace=wrap;html=1;strokeColor=default;fontFamily=Helvetica;fontSize=12;fontColor=default;fillColor=default;" parent="jLMDX9WhjYqnc2QiXSGX-25" vertex="1">
          <mxGeometry x="4.230769230769231" y="2.307692307692308" width="101.53846153846153" height="46.15384615384615" as="geometry" />
        </mxCell>
        <mxCell id="jLMDX9WhjYqnc2QiXSGX-29" value="" style="group" parent="1" vertex="1" connectable="0">
          <mxGeometry x="125" y="460" width="110" height="50" as="geometry" />
        </mxCell>
        <mxCell id="jLMDX9WhjYqnc2QiXSGX-30" value="" style="rounded=0;whiteSpace=wrap;html=1;strokeColor=default;fontFamily=Helvetica;fontSize=12;fontColor=default;fillColor=default;" parent="jLMDX9WhjYqnc2QiXSGX-29" vertex="1">
          <mxGeometry width="110" height="50" as="geometry" />
        </mxCell>
        <mxCell id="jLMDX9WhjYqnc2QiXSGX-31" value="Gol" style="rounded=0;whiteSpace=wrap;html=1;strokeColor=default;fontFamily=Helvetica;fontSize=12;fontColor=default;fillColor=default;" parent="jLMDX9WhjYqnc2QiXSGX-29" vertex="1">
          <mxGeometry x="4.230769230769231" y="2.307692307692308" width="101.53846153846153" height="46.15384615384615" as="geometry" />
        </mxCell>
        <mxCell id="jLMDX9WhjYqnc2QiXSGX-40" value="" style="shape=link;html=1;rounded=0;fontFamily=Helvetica;fontSize=12;fontColor=default;labelBackgroundColor=default;strokeColor=default;endArrow=none;entryX=0;entryY=0.5;entryDx=0;entryDy=0;exitX=1;exitY=0.5;exitDx=0;exitDy=0;width=5.294117647058824;" parent="1" source="jLMDX9WhjYqnc2QiXSGX-31" target="q1SjCqq7xsJDzZB61bRr-15" edge="1">
          <mxGeometry width="100" relative="1" as="geometry">
            <mxPoint x="150" y="320" as="sourcePoint" />
            <mxPoint x="135" y="495" as="targetPoint" />
          </mxGeometry>
        </mxCell>
        <mxCell id="jLMDX9WhjYqnc2QiXSGX-42" style="edgeStyle=none;shape=connector;rounded=0;orthogonalLoop=1;jettySize=auto;html=1;exitX=0.5;exitY=0;exitDx=0;exitDy=0;entryX=0.5;entryY=1;entryDx=0;entryDy=0;labelBackgroundColor=default;strokeColor=default;fontFamily=Helvetica;fontSize=12;fontColor=default;endArrow=none;" parent="1" source="jLMDX9WhjYqnc2QiXSGX-41" target="jLMDX9WhjYqnc2QiXSGX-30" edge="1">
          <mxGeometry relative="1" as="geometry" />
        </mxCell>
        <mxCell id="jLMDX9WhjYqnc2QiXSGX-41" value="&lt;u&gt;NroGol&lt;/u&gt;" style="ellipse;whiteSpace=wrap;html=1;strokeColor=default;fontFamily=Helvetica;fontSize=12;fontColor=default;fillColor=default;rounded=0;" parent="1" vertex="1">
          <mxGeometry x="135" y="530" width="90" height="40" as="geometry" />
        </mxCell>
        <mxCell id="jLMDX9WhjYqnc2QiXSGX-43" value="Minuto" style="ellipse;whiteSpace=wrap;html=1;strokeColor=default;fontFamily=Helvetica;fontSize=12;fontColor=default;fillColor=default;rounded=0;" parent="1" vertex="1">
          <mxGeometry x="20" y="465" width="90" height="40" as="geometry" />
        </mxCell>
        <mxCell id="jLMDX9WhjYqnc2QiXSGX-44" style="edgeStyle=none;shape=connector;rounded=0;orthogonalLoop=1;jettySize=auto;html=1;exitX=0;exitY=0.5;exitDx=0;exitDy=0;entryX=1;entryY=0.5;entryDx=0;entryDy=0;labelBackgroundColor=default;strokeColor=default;fontFamily=Helvetica;fontSize=12;fontColor=default;endArrow=none;" parent="1" source="jLMDX9WhjYqnc2QiXSGX-30" target="jLMDX9WhjYqnc2QiXSGX-43" edge="1">
          <mxGeometry relative="1" as="geometry" />
        </mxCell>
        <mxCell id="3FyedS1p1ZvCjYf3QSC5-1" value="marcó" style="rhombus;whiteSpace=wrap;html=1;" parent="1" vertex="1">
          <mxGeometry x="140" y="280" width="80" height="80" as="geometry" />
        </mxCell>
        <mxCell id="3FyedS1p1ZvCjYf3QSC5-7" value="A favor de&amp;nbsp;" style="rhombus;whiteSpace=wrap;html=1;" parent="1" vertex="1">
          <mxGeometry x="240" y="310" width="80" height="80" as="geometry" />
        </mxCell>
        <mxCell id="3FyedS1p1ZvCjYf3QSC5-11" value="juega en" style="rhombus;whiteSpace=wrap;html=1;" parent="1" vertex="1">
          <mxGeometry x="360" y="345" width="80" height="80" as="geometry" />
        </mxCell>
        <mxCell id="3FyedS1p1ZvCjYf3QSC5-16" value="local?" style="ellipse;whiteSpace=wrap;html=1;strokeColor=default;fontFamily=Helvetica;fontSize=12;fontColor=default;fillColor=default;" parent="1" vertex="1">
          <mxGeometry x="460" y="365" width="90" height="40" as="geometry" />
        </mxCell>
        <mxCell id="q1SjCqq7xsJDzZB61bRr-4" value="" style="endArrow=none;html=1;rounded=0;fontFamily=Helvetica;fontSize=12;fontColor=default;entryX=0;entryY=0.5;entryDx=0;entryDy=0;exitX=1;exitY=0.5;exitDx=0;exitDy=0;" parent="1" source="nP9h4O7x623DdZkwCpyF-36" target="nP9h4O7x623DdZkwCpyF-2" edge="1">
          <mxGeometry width="50" height="50" relative="1" as="geometry">
            <mxPoint x="560" y="220" as="sourcePoint" />
            <mxPoint x="605" y="220" as="targetPoint" />
          </mxGeometry>
        </mxCell>
        <mxCell id="q1SjCqq7xsJDzZB61bRr-6" value="" style="endArrow=none;html=1;rounded=0;fontFamily=Helvetica;fontSize=12;fontColor=default;entryX=0;entryY=0.5;entryDx=0;entryDy=0;exitX=1;exitY=0.5;exitDx=0;exitDy=0;" parent="1" source="nP9h4O7x623DdZkwCpyF-6" target="nP9h4O7x623DdZkwCpyF-4" edge="1">
          <mxGeometry width="50" height="50" relative="1" as="geometry">
            <mxPoint x="680" y="330" as="sourcePoint" />
            <mxPoint x="725" y="330" as="targetPoint" />
          </mxGeometry>
        </mxCell>
        <mxCell id="q1SjCqq7xsJDzZB61bRr-7" value="" style="endArrow=none;html=1;rounded=0;fontFamily=Helvetica;fontSize=12;fontColor=default;entryX=0.5;entryY=0;entryDx=0;entryDy=0;exitX=0.5;exitY=1;exitDx=0;exitDy=0;" parent="1" source="nP9h4O7x623DdZkwCpyF-6" target="nP9h4O7x623DdZkwCpyF-2" edge="1">
          <mxGeometry width="50" height="50" relative="1" as="geometry">
            <mxPoint x="680" y="330" as="sourcePoint" />
            <mxPoint x="725" y="330" as="targetPoint" />
          </mxGeometry>
        </mxCell>
        <mxCell id="q1SjCqq7xsJDzZB61bRr-13" value="" style="group" parent="1" vertex="1" connectable="0">
          <mxGeometry x="345" y="460" width="110" height="50" as="geometry" />
        </mxCell>
        <mxCell id="q1SjCqq7xsJDzZB61bRr-14" value="" style="rounded=0;whiteSpace=wrap;html=1;strokeColor=default;fontFamily=Helvetica;fontSize=12;fontColor=default;fillColor=default;" parent="q1SjCqq7xsJDzZB61bRr-13" vertex="1">
          <mxGeometry width="110" height="50" as="geometry" />
        </mxCell>
        <mxCell id="q1SjCqq7xsJDzZB61bRr-15" value="Encuentro" style="rounded=0;whiteSpace=wrap;html=1;strokeColor=default;fontFamily=Helvetica;fontSize=12;fontColor=default;fillColor=default;" parent="q1SjCqq7xsJDzZB61bRr-13" vertex="1">
          <mxGeometry x="4.230769230769231" y="2.307692307692308" width="101.53846153846153" height="46.15384615384615" as="geometry" />
        </mxCell>
        <mxCell id="q1SjCqq7xsJDzZB61bRr-16" value="" style="endArrow=none;html=1;rounded=0;fontFamily=Helvetica;fontSize=12;fontColor=default;exitX=1;exitY=0.5;exitDx=0;exitDy=0;" parent="1" source="3FyedS1p1ZvCjYf3QSC5-11" target="3FyedS1p1ZvCjYf3QSC5-16" edge="1">
          <mxGeometry width="50" height="50" relative="1" as="geometry">
            <mxPoint x="570" y="310" as="sourcePoint" />
            <mxPoint x="615" y="310" as="targetPoint" />
          </mxGeometry>
        </mxCell>
        <mxCell id="q1SjCqq7xsJDzZB61bRr-17" value="Provincia de Origen" style="ellipse;whiteSpace=wrap;html=1;strokeColor=default;fontFamily=Helvetica;fontSize=12;fontColor=default;fillColor=default;" parent="1" vertex="1">
          <mxGeometry y="40" width="100" height="40" as="geometry" />
        </mxCell>
        <mxCell id="q1SjCqq7xsJDzZB61bRr-18" value="" style="endArrow=none;html=1;rounded=0;fontFamily=Helvetica;fontSize=12;fontColor=default;entryX=0;entryY=0.25;entryDx=0;entryDy=0;exitX=1;exitY=0.5;exitDx=0;exitDy=0;" parent="1" source="q1SjCqq7xsJDzZB61bRr-17" target="nP9h4O7x623DdZkwCpyF-3" edge="1">
          <mxGeometry width="50" height="50" relative="1" as="geometry">
            <mxPoint x="570" y="200" as="sourcePoint" />
            <mxPoint x="615" y="200" as="targetPoint" />
          </mxGeometry>
        </mxCell>
        <mxCell id="q1SjCqq7xsJDzZB61bRr-19" value="" style="shape=link;html=1;rounded=0;fontFamily=Helvetica;fontSize=12;fontColor=default;exitX=1;exitY=0.5;exitDx=0;exitDy=0;" parent="1" source="q1SjCqq7xsJDzZB61bRr-15" target="q1SjCqq7xsJDzZB61bRr-22" edge="1">
          <mxGeometry width="100" relative="1" as="geometry">
            <mxPoint x="540" y="430" as="sourcePoint" />
            <mxPoint x="580" y="484" as="targetPoint" />
            <Array as="points" />
          </mxGeometry>
        </mxCell>
        <mxCell id="q1SjCqq7xsJDzZB61bRr-21" value="" style="endArrow=none;html=1;rounded=0;fontFamily=Helvetica;fontSize=12;fontColor=default;entryX=0.5;entryY=0;entryDx=0;entryDy=0;exitX=0.5;exitY=1;exitDx=0;exitDy=0;" parent="1" source="nP9h4O7x623DdZkwCpyF-2" target="3FyedS1p1ZvCjYf3QSC5-11" edge="1">
          <mxGeometry width="50" height="50" relative="1" as="geometry">
            <mxPoint x="450" y="310" as="sourcePoint" />
            <mxPoint x="495" y="310" as="targetPoint" />
          </mxGeometry>
        </mxCell>
        <mxCell id="q1SjCqq7xsJDzZB61bRr-22" value="" style="group" parent="1" vertex="1" connectable="0">
          <mxGeometry x="605" y="440" width="90" height="90" as="geometry" />
        </mxCell>
        <mxCell id="q1SjCqq7xsJDzZB61bRr-23" value="" style="rhombus;whiteSpace=wrap;html=1;" parent="q1SjCqq7xsJDzZB61bRr-22" vertex="1">
          <mxGeometry width="90" height="90" as="geometry" />
        </mxCell>
        <mxCell id="q1SjCqq7xsJDzZB61bRr-24" value="se disputa" style="rhombus;whiteSpace=wrap;html=1;" parent="q1SjCqq7xsJDzZB61bRr-22" vertex="1">
          <mxGeometry x="5" y="5" width="80" height="80" as="geometry" />
        </mxCell>
        <mxCell id="q1SjCqq7xsJDzZB61bRr-25" value="" style="shape=link;html=1;rounded=0;fontFamily=Helvetica;fontSize=12;fontColor=default;entryX=0.5;entryY=0;entryDx=0;entryDy=0;exitX=0.5;exitY=1;exitDx=0;exitDy=0;" parent="1" source="jLMDX9WhjYqnc2QiXSGX-20" target="q1SjCqq7xsJDzZB61bRr-24" edge="1">
          <mxGeometry width="100" relative="1" as="geometry">
            <mxPoint x="645" y="430" as="sourcePoint" />
            <mxPoint x="540" y="310" as="targetPoint" />
          </mxGeometry>
        </mxCell>
        <mxCell id="q1SjCqq7xsJDzZB61bRr-26" value="" style="endArrow=none;html=1;rounded=0;fontFamily=Helvetica;fontSize=12;fontColor=default;entryX=0.5;entryY=0;entryDx=0;entryDy=0;exitX=0.5;exitY=1;exitDx=0;exitDy=0;" parent="1" source="3FyedS1p1ZvCjYf3QSC5-11" target="q1SjCqq7xsJDzZB61bRr-15" edge="1">
          <mxGeometry width="50" height="50" relative="1" as="geometry">
            <mxPoint x="460" y="310" as="sourcePoint" />
            <mxPoint x="505" y="310" as="targetPoint" />
          </mxGeometry>
        </mxCell>
        <mxCell id="q1SjCqq7xsJDzZB61bRr-27" value="&lt;u&gt;NroEncuentro&lt;/u&gt;" style="ellipse;whiteSpace=wrap;html=1;strokeColor=default;fontFamily=Helvetica;fontSize=12;fontColor=default;fillColor=default;" parent="1" vertex="1">
          <mxGeometry x="290" y="540" width="90" height="40" as="geometry" />
        </mxCell>
        <mxCell id="q1SjCqq7xsJDzZB61bRr-28" value="" style="endArrow=none;html=1;rounded=0;fontFamily=Helvetica;fontSize=12;fontColor=default;entryX=0.5;entryY=0;entryDx=0;entryDy=0;exitX=0.5;exitY=1;exitDx=0;exitDy=0;" parent="1" source="q1SjCqq7xsJDzZB61bRr-15" target="q1SjCqq7xsJDzZB61bRr-27" edge="1">
          <mxGeometry width="50" height="50" relative="1" as="geometry">
            <mxPoint x="460" y="310" as="sourcePoint" />
            <mxPoint x="505" y="310" as="targetPoint" />
          </mxGeometry>
        </mxCell>
        <mxCell id="q1SjCqq7xsJDzZB61bRr-29" value="" style="endArrow=none;html=1;rounded=0;fontFamily=Helvetica;fontSize=12;fontColor=default;entryX=0.5;entryY=0;entryDx=0;entryDy=0;exitX=0.5;exitY=1;exitDx=0;exitDy=0;" parent="1" source="nP9h4O7x623DdZkwCpyF-3" target="3FyedS1p1ZvCjYf3QSC5-1" edge="1">
          <mxGeometry width="50" height="50" relative="1" as="geometry">
            <mxPoint x="350" y="310" as="sourcePoint" />
            <mxPoint x="395" y="310" as="targetPoint" />
          </mxGeometry>
        </mxCell>
        <mxCell id="q1SjCqq7xsJDzZB61bRr-30" value="" style="endArrow=none;html=1;rounded=0;fontFamily=Helvetica;fontSize=12;fontColor=default;entryX=0.5;entryY=1;entryDx=0;entryDy=0;exitX=0.5;exitY=0;exitDx=0;exitDy=0;" parent="1" source="jLMDX9WhjYqnc2QiXSGX-31" target="3FyedS1p1ZvCjYf3QSC5-1" edge="1">
          <mxGeometry width="50" height="50" relative="1" as="geometry">
            <mxPoint x="350" y="310" as="sourcePoint" />
            <mxPoint x="395" y="310" as="targetPoint" />
          </mxGeometry>
        </mxCell>
        <mxCell id="q1SjCqq7xsJDzZB61bRr-31" value="" style="endArrow=none;html=1;rounded=0;fontFamily=Helvetica;fontSize=12;fontColor=default;entryX=0.25;entryY=1;entryDx=0;entryDy=0;exitX=1;exitY=0.5;exitDx=0;exitDy=0;" parent="1" source="3FyedS1p1ZvCjYf3QSC5-7" target="nP9h4O7x623DdZkwCpyF-2" edge="1">
          <mxGeometry width="50" height="50" relative="1" as="geometry">
            <mxPoint x="350" y="310" as="sourcePoint" />
            <mxPoint x="395" y="310" as="targetPoint" />
            <Array as="points">
              <mxPoint x="370" y="350" />
            </Array>
          </mxGeometry>
        </mxCell>
        <mxCell id="q1SjCqq7xsJDzZB61bRr-32" value="" style="endArrow=none;html=1;rounded=0;fontFamily=Helvetica;fontSize=12;fontColor=default;entryX=0;entryY=0.5;entryDx=0;entryDy=0;exitX=0.75;exitY=0;exitDx=0;exitDy=0;" parent="1" source="jLMDX9WhjYqnc2QiXSGX-30" target="3FyedS1p1ZvCjYf3QSC5-7" edge="1">
          <mxGeometry width="50" height="50" relative="1" as="geometry">
            <mxPoint x="210" y="450" as="sourcePoint" />
            <mxPoint x="395" y="310" as="targetPoint" />
            <Array as="points">
              <mxPoint x="208" y="350" />
            </Array>
          </mxGeometry>
        </mxCell>
        <mxCell id="q1SjCqq7xsJDzZB61bRr-33" value="1" style="text;html=1;strokeColor=none;fillColor=none;align=center;verticalAlign=middle;whiteSpace=wrap;rounded=0;" parent="1" vertex="1">
          <mxGeometry x="355" y="180.0000000000001" width="60" height="30" as="geometry" />
        </mxCell>
        <mxCell id="q1SjCqq7xsJDzZB61bRr-34" value="N" style="text;html=1;strokeColor=none;fillColor=none;align=center;verticalAlign=middle;whiteSpace=wrap;rounded=0;" parent="1" vertex="1">
          <mxGeometry x="310" y="120.00000000000011" width="60" height="30" as="geometry" />
        </mxCell>
        <mxCell id="q1SjCqq7xsJDzZB61bRr-35" value="N" style="text;html=1;strokeColor=none;fillColor=none;align=center;verticalAlign=middle;whiteSpace=wrap;rounded=0;" parent="1" vertex="1">
          <mxGeometry x="425" y="120.00000000000011" width="60" height="30" as="geometry" />
        </mxCell>
        <mxCell id="q1SjCqq7xsJDzZB61bRr-36" value="(1,1)" style="text;html=1;strokeColor=none;fillColor=none;align=center;verticalAlign=middle;whiteSpace=wrap;rounded=0;" parent="1" vertex="1">
          <mxGeometry x="635" y="180.0000000000001" width="60" height="30" as="geometry" />
        </mxCell>
        <mxCell id="q1SjCqq7xsJDzZB61bRr-37" value="(0,N)" style="text;html=1;strokeColor=none;fillColor=none;align=center;verticalAlign=middle;whiteSpace=wrap;rounded=0;" parent="1" vertex="1">
          <mxGeometry x="635" y="345.0000000000001" width="60" height="30" as="geometry" />
        </mxCell>
        <mxCell id="q1SjCqq7xsJDzZB61bRr-38" value="(0,N)" style="text;html=1;strokeColor=none;fillColor=none;align=center;verticalAlign=middle;whiteSpace=wrap;rounded=0;" parent="1" vertex="1">
          <mxGeometry x="450" y="460.0000000000001" width="60" height="30" as="geometry" />
        </mxCell>
        <mxCell id="q1SjCqq7xsJDzZB61bRr-39" value="(1,1)" style="text;html=1;strokeColor=none;fillColor=none;align=center;verticalAlign=middle;whiteSpace=wrap;rounded=0;" parent="1" vertex="1">
          <mxGeometry x="580" y="425.0000000000001" width="60" height="30" as="geometry" />
        </mxCell>
        <mxCell id="q1SjCqq7xsJDzZB61bRr-40" value="(2,2)" style="text;html=1;strokeColor=none;fillColor=none;align=center;verticalAlign=middle;whiteSpace=wrap;rounded=0;" parent="1" vertex="1">
          <mxGeometry x="390" y="310.0000000000001" width="60" height="30" as="geometry" />
        </mxCell>
        <mxCell id="q1SjCqq7xsJDzZB61bRr-41" value="(0,N)" style="text;html=1;strokeColor=none;fillColor=none;align=center;verticalAlign=middle;whiteSpace=wrap;rounded=0;" parent="1" vertex="1">
          <mxGeometry x="390" y="430" width="60" height="30" as="geometry" />
        </mxCell>
        <mxCell id="q1SjCqq7xsJDzZB61bRr-42" value="(0,N)" style="text;html=1;strokeColor=none;fillColor=none;align=center;verticalAlign=middle;whiteSpace=wrap;rounded=0;" parent="1" vertex="1">
          <mxGeometry x="220" y="460" width="60" height="30" as="geometry" />
        </mxCell>
        <mxCell id="q1SjCqq7xsJDzZB61bRr-43" value="(1,1)" style="text;html=1;strokeColor=none;fillColor=none;align=center;verticalAlign=middle;whiteSpace=wrap;rounded=0;" parent="1" vertex="1">
          <mxGeometry x="294" y="455" width="60" height="30" as="geometry" />
        </mxCell>
        <mxCell id="q1SjCqq7xsJDzZB61bRr-44" value="(0,N)" style="text;html=1;strokeColor=none;fillColor=none;align=center;verticalAlign=middle;whiteSpace=wrap;rounded=0;" parent="1" vertex="1">
          <mxGeometry x="135" y="430" width="60" height="30" as="geometry" />
        </mxCell>
        <mxCell id="q1SjCqq7xsJDzZB61bRr-45" value="(1,1)" style="text;html=1;strokeColor=none;fillColor=none;align=center;verticalAlign=middle;whiteSpace=wrap;rounded=0;" parent="1" vertex="1">
          <mxGeometry x="120" y="180" width="60" height="30" as="geometry" />
        </mxCell>
        <mxCell id="q1SjCqq7xsJDzZB61bRr-46" value="(1,1)" style="text;html=1;strokeColor=none;fillColor=none;align=center;verticalAlign=middle;whiteSpace=wrap;rounded=0;" parent="1" vertex="1">
          <mxGeometry x="320" y="315" width="60" height="30" as="geometry" />
        </mxCell>
        <mxCell id="qsl8iXRnEVJrJUBrq_yv-2" value="&lt;u&gt;Nombre&lt;/u&gt;" style="ellipse;whiteSpace=wrap;html=1;strokeColor=default;fontFamily=Helvetica;fontSize=12;fontColor=default;fillColor=default;" vertex="1" parent="1">
          <mxGeometry x="730" y="130" width="90" height="40" as="geometry" />
        </mxCell>
        <mxCell id="qsl8iXRnEVJrJUBrq_yv-4" value="" style="endArrow=none;html=1;rounded=0;fontFamily=Helvetica;fontSize=12;fontColor=default;entryX=0;entryY=0.5;entryDx=0;entryDy=0;exitX=1;exitY=0.5;exitDx=0;exitDy=0;" edge="1" parent="1" source="nP9h4O7x623DdZkwCpyF-4" target="qsl8iXRnEVJrJUBrq_yv-2">
          <mxGeometry width="50" height="50" relative="1" as="geometry">
            <mxPoint x="390" y="340" as="sourcePoint" />
            <mxPoint x="435" y="340" as="targetPoint" />
          </mxGeometry>
        </mxCell>
        <mxCell id="qsl8iXRnEVJrJUBrq_yv-5" value="Día" style="ellipse;whiteSpace=wrap;html=1;strokeColor=default;fontFamily=Helvetica;fontSize=12;fontColor=default;fillColor=default;" vertex="1" parent="1">
          <mxGeometry x="380" y="540" width="90" height="40" as="geometry" />
        </mxCell>
        <mxCell id="qsl8iXRnEVJrJUBrq_yv-6" value="Día" style="ellipse;whiteSpace=wrap;html=1;strokeColor=default;fontFamily=Helvetica;fontSize=12;fontColor=default;fillColor=default;" vertex="1" parent="1">
          <mxGeometry x="470" y="540" width="90" height="40" as="geometry" />
        </mxCell>
        <mxCell id="qsl8iXRnEVJrJUBrq_yv-8" value="" style="endArrow=none;html=1;rounded=0;fontFamily=Helvetica;fontSize=12;fontColor=default;entryX=0.5;entryY=0;entryDx=0;entryDy=0;exitX=0.818;exitY=0.98;exitDx=0;exitDy=0;exitPerimeter=0;" edge="1" parent="1" source="q1SjCqq7xsJDzZB61bRr-14" target="qsl8iXRnEVJrJUBrq_yv-6">
          <mxGeometry width="50" height="50" relative="1" as="geometry">
            <mxPoint x="390" y="440" as="sourcePoint" />
            <mxPoint x="435" y="440" as="targetPoint" />
          </mxGeometry>
        </mxCell>
        <mxCell id="qsl8iXRnEVJrJUBrq_yv-10" value="(0,N)" style="text;html=1;strokeColor=none;fillColor=none;align=center;verticalAlign=middle;whiteSpace=wrap;rounded=0;" vertex="1" parent="1">
          <mxGeometry x="200" y="420" width="60" height="30" as="geometry" />
        </mxCell>
      </root>
    </mxGraphModel>
  </diagram>
</mxfile>
